<svg xmlns="http://www.w3.org/2000/svg" width="1495.779" height="442.947" xmlns:v="https://vecta.io/nano"><path d="M768.658 141.671L627.542 437.015h69.309l24.353-54.947h68.685l-.313 54.947h62.129l1.873-295.344h-84.92zM790.2 325.559h-43.709l44.333-100.217-.624 100.217zm580.698-127.379c15.923 0 16.859 12.8 15.298 19.981-1.561 6.868.625 0-1.561 8.429s-10.303 32.469-33.406 32.469H1330l18.42-60.879h22.478zm-35.591 116.763c15.922 0 20.293 3.435 13.736 27.474l-14.673 55.572c-2.186 8.43-5.308 30.908-2.186 39.338h71.807s-1.562-15.298-.937-23.104c2.186-18.42 17.483-82.109 17.483-82.109 5.619-19.98-7.181-37.776-25.601-42.146l2.497-.937c42.46-14.986 53.075-43.708 57.445-64.314 12.177-55.572-15.922-82.421-74.616-82.421h-83.358l-90.227 295.344h68.685l37.465-122.072h22.479v-.625zM504.222 141.358H404.005l-16.547 56.821h32.156l-18.42 58.382c-4.995 2.81-10.614 3.122-22.479 3.122-17.483 0-27.786-7.181-17.483-39.025l41.523-140.491c5.308-18.732 14.049-30.908 30.908-30.908 29.347 0 22.791 21.542 7.805 65.875h68.997l8.741-28.723C534.505 35.21 510.465 2.429 451.458.243c-65.563-2.498-97.407 13.425-123.632 87.729 0 .313-23.104 67.124-33.405 116.764h-.001c-12.8 60.567-4.059 94.91 60.567 102.09 65.251 7.181 106.149-16.858 106.149-16.858l43.086-148.61zm-322.817 17.796c-12.177-13.737-31.533-23.728-53.075-38.089-14.674-9.678-10.927-20.293-6.244-38.401 5.932-22.479 13.113-34.03 29.035-34.03 22.479 0 15.61 18.732-.937 65.875h71.807c19.356-64.626 22.166-113.33-66.812-113.33-55.572 0-90.851 32.782-104.275 79.924-7.181 25.288-2.498 51.201 6.868 62.128 10.615 12.8 41.835 32.157 59.006 44.021 14.361 10.615 8.742 29.035 0 52.762-7.492 19.981-19.044 19.981-30.596 19.981-27.161 0-11.863-33.718.313-67.748H14.688v-.312L2.823 235.02c-11.863 39.962 13.737 72.743 75.241 72.743 55.885 0 92.412-16.547 108.959-71.807 10.616-34.967 9.991-59.318-5.618-76.802zm432.088-22.166c-55.572 0-90.539 32.781-104.276 79.612-7.181 25.289-2.497 50.889 7.181 62.128 10.928 12.8 42.147 31.845 59.319 43.708 14.361 10.615 8.741 29.035 0 52.45-7.493 19.981-19.045 19.981-30.597 19.981-27.161 0-11.863-33.719 0-67.748h-72.43v.312l-11.864 43.084c-11.863 39.649 13.737 72.432 75.554 72.432 55.884 0 92.412-16.547 108.959-71.495 10.303-34.654 9.678-59.006-5.933-76.49-12.176-13.736-31.532-23.727-53.074-38.088-14.674-9.679-10.927-20.293-6.244-38.401 5.932-22.167 13.112-34.03 29.035-34.03 22.479 0 15.61 18.732-.624 65.563h71.807c19.355-64.315 21.852-113.018-66.813-113.018zM269.133 3.677l-92.412 301.588h70.558.312l92.1-301.588zm996.553 194.503l17.483-56.509h-146.111l-90.227 295.344h146.111l16.547-54.324h-74.929l20.918-67.748h74.616l17.172-55.884h-74.93l18.42-60.879zm-142.053-56.509h-70.87L987.2 356.467c-3.747 12.176-13.425 32.781-35.279 32.781-19.044 0-22.479-16.547-18.42-30.284l66.188-217.293H929.13L865.753 349.91c-17.796 59.007 10.927 91.788 67.748 92.725 82.109 1.561 111.457-43.084 126.13-91.788l64.002-209.176zm347.17 27.162v-19.044h6.557c2.186 0 3.746.312 4.683.625s1.873.937 2.497 1.873.938 1.873.938 2.81c0 1.249-.625 2.498-1.562 3.746-.937.937-2.186 1.561-4.059 1.874.624.312 1.249.625 1.562.937.624.625 1.561 1.873 2.81 3.747l2.186 3.746h-3.747l-1.561-3.122c-1.249-2.498-2.498-3.746-3.122-4.371-.624-.312-1.249-.625-2.498-.625h-1.561v8.117h-3.122v-.313zm3.122-10.615h3.746c1.874 0 3.122-.313 3.747-.937s.937-1.249.937-2.185c0-.625 0-.937-.313-1.561-.313-.313-.624-.625-1.249-.937s-1.561-.312-3.122-.312h-3.746v5.932zm21.855.936c0 9.678-7.806 17.483-17.483 17.483s-17.483-7.805-17.483-17.483 7.805-17.483 17.483-17.483 17.483 7.805 17.483 17.483zm-17.484-14.674a14.674 14.674 0 1 0 0 29.347 14.66 14.66 0 0 0 14.673-14.673c0-7.805-6.556-14.674-14.673-14.674z"/></svg>