<svg xml:space="preserve" style="max-height: 500px" viewBox="0 0 137.16240000000002 72.22446043165468" y="0px" x="0px" xmlns:xlink="http://www.w3.org/1999/xlink" xmlns="http://www.w3.org/2000/svg" id="a" version="1.1" width="137.16240000000002" height="72.22446043165468">
<style type="text/css">
	.st0{fill-rule:evenodd;clip-rule:evenodd;}
</style>
<path d="M136.4,23.5C134.3,10.5,91.2,0,38.2,0C24.7,0,11.6,0.9,0,3.7l0,20.8c2.3-0.7,4.8-1,7.9-1&#10;&#9;c6.4-0.1,9.4,4.6,15.9,4.7c6.6,0.1,9.7-4.7,16.3-4.7c6.5,0.1,9.4,4.6,15.9,4.7c6.6,0.1,9.7-4.8,16.3-4.7c6.5,0.1,9.4,4.9,15.9,4.9&#10;&#9;c6.5,0,9.4-4.7,15.9-4.7c6.1,0.1,8.9,4.3,15,4.4c6.8,0.1,10-4.8,16.8-4.7C136.1,23.5,136.2,23.5,136.4,23.5L136.4,23.5L136.4,23.5z" class="st0"/>
<path d="M0,33.9C2.4,33.3,4.8,33,7.9,33c6.5,0,9.4,4.1,15.9,4.1c6.6,0,9.7-4.2,16.3-4.1c6.5,0,9.4,4.1,15.9,4.1&#10;&#9;c6.6,0,9.7-4.2,16.3-4.1c6.5,0.1,9.4,4.3,15.9,4.4c6.5,0,9.4-4.2,15.9-4.1c6.1,0,8.9,3.8,15,3.9c3.6,0.1,6.2-1.1,8.8-2.2l0.3-0.1&#10;&#9;c3.9-2,6.5-4.1,7.7-6.3c-6.8-0.1-10,4.3-16.8,4.1c-6.1-0.1-8.9-3.9-15-3.9c-6.5-0.1-9.4,4.2-15.9,4.1c-6.5,0-9.4-4.3-15.9-4.4&#10;&#9;c-6.6-0.1-9.7,4.2-16.3,4.1c-6.5,0-9.4-4.1-15.9-4.1c-6.6,0-9.7,4.2-16.3,4.1c-6.5,0-9.4-4.2-15.9-4.1c-3,0-5.5,0.3-7.9,0.9L0,33.9&#10;&#9;L0,33.9z" class="st0"/>
<path d="M86.1,46.4c1.9,0.3,2.9,0.1,4.4-0.1c1.3-0.2,2.5-0.5,3.8-1.1c2.9-1.4,5.8-2.9,9.8-2.9c1.1,0,2.1,0.1,3.1,0.4&#10;&#9;c0.1,0,1.9,0.2,2.8,0.1c1.6-0.1,3.3-1.6,3.9-2c0.9-0.6-2.1-1.5-2.9-1.8c-2.5-1.1-3.5-1.1-6.8-1.1c-6.5,0-9.4,4.2-15.9,4.1&#10;&#9;c-6.5,0-9.4-4.3-15.9-4.4c-6.6-0.1-9.7,4.2-16.3,4.1c-6.5,0-9.4-4.1-15.9-4.1c-6.6,0-9.7,4.2-16.3,4.1c-6.5,0-9.4-4.2-15.9-4.1&#10;&#9;c-3,0-5.5,0.3-7.9,0.9v4.5c2.3-0.6,4.8-0.9,7.9-0.9c6.5,0,9.4,4.1,15.9,4.1c6.6,0,9.7-4.2,16.3-4.1c6.5,0,9.4,4.1,15.9,4.1&#10;&#9;c6.6,0,9.7-4.2,16.3-4.1C78.1,42.2,81,45.6,86.1,46.4L86.1,46.4L86.1,46.4z" class="st0"/>
<path d="M190.1,65.3l0,5.8c0,0.1,0,0.1-0.1,0.1h-1.3c0,0-0.1-0.1-0.1-0.1l0-6l0-5.8c0-0.1,0-0.1,0.1-0.1h1.6c0,0,0.1,0,0.1,0.1&#10;&#9;l6.3,9.9l0-1l0-2.9l0-6c0-0.1,0-0.1,0.1-0.1h1.3c0,0,0.1,0.1,0.1,0.1l0,5.8l0,6c0,0.1,0,0.1-0.1,0.1h-1.7c0,0-0.1,0-0.1-0.1&#10;&#9;l-6.2-9.7l0,1.1L190.1,65.3L190.1,65.3z"/>
<path d="M208.4,71.4c-3.4,0-5.7-2.5-5.7-6.2s2.3-6.2,5.7-6.2s5.7,2.4,5.7,6.2S211.8,71.4,208.4,71.4 M208.4,70.1&#10;&#9;c2.5,0,4.1-1.8,4.1-4.9s-1.5-4.9-4.1-4.9s-4.1,1.9-4.1,4.9S205.9,70.1,208.4,70.1"/>
<path d="M226.5,71.2c0,0-0.1-0.1-0.1-0.1l0-5.7h-6.4l0,5.7c0,0.1,0,0.1-0.1,0.1h-1.4c0,0-0.1-0.1-0.1-0.1l0-5.8l0-6&#10;&#9;c0-0.1,0-0.1,0.1-0.1h1.4c0,0,0.1,0.1,0.1,0.1l0,4.8h6.4l0-4.8c0-0.1,0-0.1,0.1-0.1h1.4c0,0,0.1,0.1,0.1,0.1l0,6l0,5.8&#10;&#9;c0,0.1,0,0.1-0.1,0.1H226.5z"/>
<path d="M238.7,69.1l-1.8-2.8h-2.6l0,4.8c0,0.1,0,0.1-0.1,0.1h-1.4c0,0-0.1-0.1-0.1-0.1l0-6.1l0-5.7c0-0.1,0-0.1,0.1-0.1h4.2&#10;&#9;c2.7,0,4.4,1.2,4.4,3.5c0,1.9-1.1,3.1-2.9,3.4l3.2,4.9c0,0,0,0.1,0,0.1H240c0,0-0.1,0-0.1-0.1L238.7,69.1L238.7,69.1z M237.2,60.5&#10;&#9;h-2.9l0,4.6h2.9c1.6,0,2.7-0.7,2.7-2.3C239.9,61.3,238.9,60.5,237.2,60.5"/>
<path d="M246,71.2c0,0-0.1-0.1-0.1-0.1l0-6l0-5.7c0-0.1,0-0.1,0.1-0.1h3.8c3.4,0,6.1,2.1,6.1,6s-2.8,6-6,6L246,71.2L246,71.2z&#10;&#9; M247.6,69.9h2.5c2.1,0,4.2-1.4,4.2-4.7s-2-4.7-4.3-4.7h-2.4c0,0,0,3.4,0,4.5S247.6,69.9,247.6,69.9"/>
<path d="M238.8,31.4c0.4,0,0.7-0.5,0.5-0.9l-16.6-30c-0.2-0.4-0.8-0.4-1,0l-16.3,30c-0.2,0.4,0,0.9,0.5,0.9&#10;&#9;C208.5,31.6,237.4,31.5,238.8,31.4"/>
<path d="M225.8,33.6c0-0.1-2.3-0.1-3.9,0.1c-1.1,0.2-2,0.3-2.7,0.5c-0.3,0.1-0.4,0.1-0.4,0.3v12.2h7L225.8,33.6L225.8,33.6z"/>
<path d="M10,71.2c-0.1,0-0.1-0.1-0.1-0.1l-2.4-9.7l-2.3,9.7c0,0.1-0.1,0.1-0.1,0.1H3.3c-0.1,0-0.1-0.1-0.1-0.1L0.1,59.3&#10;&#9;c0-0.1,0-0.1,0.1-0.1h1.4c0.1,0,0.1,0.1,0.1,0.1l2.5,10.1l2.4-10.1c0-0.1,0.1-0.1,0.1-0.1h1.6c0.1,0,0.1,0.1,0.1,0.1l2.4,10.1&#10;&#9;l2.5-10.1c0-0.1,0.1-0.1,0.1-0.1h1.3c0.1,0,0.1,0.1,0.1,0.1l-3,11.8c0,0.1-0.1,0.1-0.1,0.1H10L10,71.2z"/>
<path d="M26.5,71.2c-0.1,0-0.1,0-0.1-0.1l-1.2-3.5h-4.9l-1.2,3.5c0,0.1-0.1,0.1-0.1,0.1h-1.4c-0.1,0-0.1-0.1-0.1-0.1l4.2-11.8&#10;&#9;c0-0.1,0.1-0.1,0.1-0.1h1.9c0.1,0,0.1,0,0.1,0.1L28,71.1c0,0.1,0,0.1-0.1,0.1H26.5z M24.7,66.3l-2-5.9l-2,5.9H24.7z"/>
<path d="M33.9,71.2c-0.1,0-0.1-0.1-0.1-0.1l0.1-5.8l0-4.8h-3.4c-0.1,0-0.1-0.1-0.1-0.1v-1.1c0-0.1,0.1-0.1,0.1-0.1h8.4&#10;&#9;c0.1,0,0.1,0.1,0.1,0.1v1.1c0,0.1-0.1,0.1-0.1,0.1h-3.4l0,4.8l0.1,5.8c0,0.1-0.1,0.1-0.1,0.1H33.9L33.9,71.2z"/>
<path d="M43.2,71.2c-0.1,0-0.1-0.1-0.1-0.1l0.1-6.1l-0.1-5.7c0-0.1,0.1-0.1,0.1-0.1h7.3c0.1,0,0.1,0.1,0.1,0.1v1.1&#10;&#9;c0,0.1-0.1,0.1-0.1,0.1h-5.8l0,3.7h5.4c0.1,0,0.1,0.1,0.1,0.1v1.1c0,0.1-0.1,0.1-0.1,0.1h-5.4l0,4.5h6c0.1,0,0.1,0.1,0.1,0.1v1.1&#10;&#9;c0,0.1-0.1,0.1-0.1,0.1L43.2,71.2L43.2,71.2z"/>
<path d="M61.1,69.1l-1.8-2.8h-2.6l0,4.8c0,0.1-0.1,0.1-0.1,0.1h-1.4c-0.1,0-0.1-0.1-0.1-0.1l0-6.1l0-5.7c0-0.1,0.1-0.1,0.1-0.1h4.2&#10;&#9;c2.7,0,4.4,1.2,4.4,3.5c0,1.9-1.1,3.1-2.9,3.4l3.2,4.9c0,0,0,0.1-0.1,0.1h-1.6c-0.1,0-0.1,0-0.1-0.1L61.1,69.1L61.1,69.1z&#10;&#9; M59.6,60.5h-2.9l0,4.6h2.9c1.6,0,2.7-0.7,2.7-2.3C62.3,61.3,61.3,60.5,59.6,60.5"/>
<path d="M74.3,69.1l-1.8-2.8h-2.6l0,4.8c0,0.1-0.1,0.1-0.1,0.1h-1.4c-0.1,0-0.1-0.1-0.1-0.1l0-6.1l0-5.7c0-0.1,0.1-0.1,0.1-0.1h4.2&#10;&#9;c2.7,0,4.4,1.2,4.4,3.5c0,1.9-1.1,3.1-2.9,3.4l3.2,4.9c0,0,0,0.1-0.1,0.1h-1.6c-0.1,0-0.1,0-0.1-0.1L74.3,69.1L74.3,69.1z&#10;&#9; M72.8,60.5h-2.9l0,4.6h2.9c1.6,0,2.7-0.7,2.7-2.3C75.5,61.3,74.5,60.5,72.8,60.5"/>
<path d="M86.8,71.4c-3.4,0-5.7-2.5-5.7-6.2s2.3-6.2,5.7-6.2s5.7,2.4,5.7,6.2S90.3,71.4,86.8,71.4 M86.8,70.1c2.5,0,4.1-1.8,4.1-4.9&#10;&#9;s-1.5-4.9-4.1-4.9s-4.1,1.9-4.1,4.9S84.3,70.1,86.8,70.1"/>
<path d="M105.9,71.2c-0.1,0-0.1-0.1-0.1-0.1l-2.4-9.7l-2.3,9.7c0,0.1-0.1,0.1-0.1,0.1h-1.7c-0.1,0-0.1-0.1-0.1-0.1l-3.1-11.8&#10;&#9;c0-0.1,0-0.1,0.1-0.1h1.4c0.1,0,0.1,0.1,0.1,0.1l2.5,10.1l2.4-10.1c0-0.1,0.1-0.1,0.1-0.1h1.6c0.1,0,0.1,0.1,0.1,0.1l2.4,10.1&#10;&#9;l2.5-10.1c0-0.1,0.1-0.1,0.1-0.1h1.3c0.1,0,0.1,0.1,0.1,0.1l-3,11.8c0,0.1-0.1,0.1-0.1,0.1H105.9L105.9,71.2z"/>
<path d="M115,71.2c-0.1,0-0.1-0.1-0.1-0.1L115,65l-0.1-5.7c0-0.1,0.1-0.1,0.1-0.1h7.3c0.1,0,0.1,0.1,0.1,0.1v1.1&#10;&#9;c0,0.1-0.1,0.1-0.1,0.1h-5.8l0,3.7h5.4c0.1,0,0.1,0.1,0.1,0.1v1.1c0,0.1-0.1,0.1-0.1,0.1h-5.4l0,4.5h6c0.1,0,0.1,0.1,0.1,0.1v1.1&#10;&#9;c0,0.1-0.1,0.1-0.1,0.1L115,71.2L115,71.2z"/>
<path d="M132.9,69.1l-1.8-2.8h-2.6l0,4.8c0,0.1,0,0.1-0.1,0.1H127c-0.1,0-0.1-0.1-0.1-0.1l0-6.1l0-5.7c0-0.1,0.1-0.1,0.1-0.1h4.2&#10;&#9;c2.7,0,4.4,1.2,4.4,3.5c0,1.9-1.1,3.1-2.9,3.4l3.2,4.9c0,0,0,0.1,0,0.1h-1.6c0,0-0.1,0-0.1-0.1L132.9,69.1L132.9,69.1z M131.4,60.5&#10;&#9;h-2.9l0,4.6h2.9c1.6,0,2.7-0.7,2.7-2.3C134.1,61.3,133.1,60.5,131.4,60.5"/>
<rect height="15" width="1.1" y="58" x="161.9"/>
</svg>